<svg xmlns="http://www.w3.org/2000/svg" version="1.1" xmlns:xlink="http://www.w3.org/1999/xlink" xmlns:svgjs="http://svgjs.com/svgjs" width="512" height="512" x="0" y="0" viewBox="0 0 64 64" style="enable-background:new 0 0 512 512" xml:space="preserve" class=""><g><g fill="rgb(0,0,0)"><path d="m50.42 40.55v-16.88a3.44913 3.44913 0 0 0 -.16-1.06c-.58691.34863-16.22217 9.44744-17.26 10.06v19.87a3.97029 3.97029 0 0 0 .82-.35l14.74-8.44a3.69265 3.69265 0 0 0 1.86-3.2z" fill="#000000" data-original="#000000" class=""></path><path d="m33.87 11.83a3.68333 3.68333 0 0 0 -3.74 0s-15.09 8.89-15.25 9.03l17.12 10.08c.89978-.51465 16.99683-9.91028 17.19-10.02-.18-.17-15.32-9.09-15.32-9.09z" fill="#000000" data-original="#000000" class=""></path><path d="m13.58 23.67v16.65a3.68938 3.68938 0 0 0 1.82 3.18l14.72 8.67a3.36642 3.36642 0 0 0 .88.37v-19.87c-1.06213-.63031-16.62109-9.76941-17.23-10.14a3.36833 3.36833 0 0 0 -.19 1.14z" fill="#000000" data-original="#000000" class=""></path><path d="m5 21.96533a.99974.99974 0 0 0 1-1v-12.01416a2.00229 2.00229 0 0 1 2-2h9.81641a1 1 0 0 0 0-2h-9.81641a4.00428 4.00428 0 0 0 -4 4v12.01416a.99974.99974 0 0 0 1 1z" fill="#000000" data-original="#000000" class=""></path><path d="m56 4.95117h-9.81641a1 1 0 0 0 0 2h9.81641a2.00229 2.00229 0 0 1 2 2v12.01416a1.00011 1.00011 0 0 0 2-.00006v-12.0141a4.00428 4.00428 0 0 0 -4-4z" fill="#000000" data-original="#000000" class=""></path><path d="m17.81641 57.04883h-9.81641a2.00229 2.00229 0 0 1 -2-2v-12.01416a1.00011 1.00011 0 0 0 -2 .00006v12.0141a4.00428 4.00428 0 0 0 4 4h9.81641a1.0001 1.0001 0 0 0 0-2z" fill="#000000" data-original="#000000" class=""></path><path d="m59 42.03467a.99974.99974 0 0 0 -1 1v12.01416a2.00229 2.00229 0 0 1 -2 2h-9.81641a1 1 0 0 0 0 2h9.81641a4.00428 4.00428 0 0 0 4-4v-12.01416a.99974.99974 0 0 0 -1-1z" fill="#000000" data-original="#000000" class=""></path></g></g></svg>